<?xml version="1.0" standalone="no"?><!DOCTYPE svg PUBLIC "-//W3C//DTD SVG 1.1//EN" "http://www.w3.org/Graphics/SVG/1.1/DTD/svg11.dtd"><svg t="1613319641225" class="icon" viewBox="0 0 1024 1024" version="1.1" xmlns="http://www.w3.org/2000/svg" p-id="7100" xmlns:xlink="http://www.w3.org/1999/xlink" width="32" height="32"><defs><style type="text/css">@font-face { font-family: element-icons; src: url("chrome-extension://moombeodfomdpjnpocobemoiaemednkg/fonts/element-icons.woff") format("woff"), url("chrome-extension://moombeodfomdpjnpocobemoiaemednkg/fonts/element-icons.ttf ") format("truetype"); }
</style></defs><path d="M360.299461 577.448618c-14.134929 14.166651-21.904892 33.066093-21.904892 53.1802 0 20.050662 7.770987 38.965453 21.904892 53.195549 28.172643 28.396747 77.227895 28.396747 105.432261 0 15.31787-15.429411 49.566906-49.806359 89.906659-90.27505 58.472739-58.680471 129.687688-130.104173 174.058245-174.794002 66.435085-67.058278 66.435085-176.073134 0-243.131413-32.18605-32.458249-75.005274-50.381457-120.5424-50.381457s-88.388073 17.924231-120.622218 50.381457c-33.752732 34.073026-67.921949 68.194148-105.560174 105.752556-45.920866 45.792952-96.910167 96.750531-158.660556 158.948105-50.301639 50.749848-77.963653 118.191866-77.963653 189.93484 0 71.727625 27.66099 139.186016 77.963653 189.919491 103.881952 104.72925 272.903483 104.72925 376.704594 0l142.862755-144.013975c8.314363-8.394181 21.825075-8.394181 30.139437 0 8.346085 8.362458 8.346085 21.969361 0 30.363542L631.187031 850.575182c-60.23078 60.727083-139.42547 91.15407-218.507596 91.15407-79.114872 0-158.260443-30.363542-218.444151-91.15407-58.424644-58.823734-90.499154-137.059586-90.499154-220.314755 0-83.208097 32.074509-161.442926 90.499154-220.298382 61.685921-62.310138 112.803135-113.267716 158.724001-159.124114 37.606503-37.494962 71.77572-71.615061 105.480356-105.59292 40.244586-40.628326 93.76043-62.981427 150.71356-62.981427 56.873312 0 110.389156 22.353101 150.633742 62.981427 83.111906 83.766822 83.111906 220.122373 0 303.873846-44.322461 44.753273-115.585505 116.241444-174.089967 174.889169-40.292682 40.420595-74.541717 74.749448-89.826841 90.178859-22.112624 22.288632-51.532677 34.58468-82.85608 34.58468-31.30703 0-60.775178-12.296047-82.887802-34.58468-22.160719-22.353101-34.328853-51.980885-34.328853-83.559091 0-31.562856 12.168134-61.254086 34.328853-83.607186 0 0 256.994142-259.391748 265.388323-267.786952 8.394181-8.378831 22.032806-8.378831 30.426987 0 8.346085 8.394181 8.346085 22.001083 0 30.395264C617.548406 317.992401 360.299461 577.448618 360.299461 577.448618L360.299461 577.448618zM856.330768 614.782921c-5.420453 0-10.872628-2.078335-15.030321-6.299473-8.362458-8.394181-8.362458-21.969361 0-30.363542l42.595121-42.97886c8.362458-8.394181 21.825075-8.394181 30.187533 0 8.266267 8.394181 8.266267 21.969361 0 30.363542l-42.643216 42.97886C867.283214 612.704586 861.814666 614.782921 856.330768 614.782921L856.330768 614.782921z" p-id="7101" fill="#757575"></path></svg>