<?xml version="1.0" standalone="no"?><!DOCTYPE svg PUBLIC "-//W3C//DTD SVG 1.1//EN" "http://www.w3.org/Graphics/SVG/1.1/DTD/svg11.dtd"><svg t="1613319890427" class="icon" viewBox="0 0 1024 1024" version="1.1" xmlns="http://www.w3.org/2000/svg" p-id="8119" xmlns:xlink="http://www.w3.org/1999/xlink" width="32" height="32"><defs><style type="text/css">@font-face { font-family: element-icons; src: url("chrome-extension://moombeodfomdpjnpocobemoiaemednkg/fonts/element-icons.woff") format("woff"), url("chrome-extension://moombeodfomdpjnpocobemoiaemednkg/fonts/element-icons.ttf ") format("truetype"); }
</style></defs><path d="M586.305841 604.078097m-416.70396 0a416.70396 416.70396 0 1 0 833.407921 0 416.70396 416.70396 0 1 0-833.407921 0Z" fill="#C1D3F4" p-id="8120"></path><path d="M511.426424 529.198679m-416.70396 0a416.70396 416.70396 0 1 0 833.40792 0 416.70396 416.70396 0 1 0-833.40792 0Z" fill="#FFD7E3" p-id="8121"></path><path d="M220.519885 929.429167a127.29501 127.29501 0 0 1-90.604095-35.567723 149.758836 149.758836 0 0 1 2.995177-196.184075L603.902505 110.622734A289.034553 289.034553 0 0 1 808.323315 0.549989a204.795208 204.795208 0 0 1 157.621175 57.282755 202.548825 202.548825 0 0 1 56.908357 157.246777 289.783347 289.783347 0 0 1-109.698347 204.795208L325.725467 890.866267a168.47869 168.47869 0 0 1-105.205582 38.5629zM149.758836 874.018398a119.432671 119.432671 0 0 0 158.369968-5.241559l587.429033-470.991538a262.077962 262.077962 0 0 0 99.215229-184.203368 174.843441 174.843441 0 0 0-48.671622-135.906143 174.843441 174.843441 0 0 0-135.906143-48.671622 262.077962 262.077962 0 0 0-184.577765 99.215229L154.625998 715.274032A120.555863 120.555863 0 0 0 149.758836 874.018398zM87.234522 706.662899a13.478295 13.478295 0 0 1-9.734325-4.118368l-55.785166-52.415592a69.637859 69.637859 0 0 1-17.222266-74.879418 68.14027 68.14027 0 0 1 37.439709-37.439709 68.889064 68.889064 0 0 1 53.164387 0l83.864948 32.572547a13.478295 13.478295 0 0 1 8.611133 9.359927 14.601486 14.601486 0 0 1-2.246383 12.355104l-86.11133 112.319127a14.227089 14.227089 0 0 1-10.108722 5.241559zM41.18368 629.911496l44.178856 41.558077L149.758836 586.855831 84.239345 562.145623a40.809283 40.809283 0 0 0-31.823753 0 43.804459 43.804459 0 0 0-21.715031 23.212619 41.18368 41.18368 0 0 0 10.483119 44.927651zM423.817505 1023.777234a70.012256 70.012256 0 0 1-49.420416-22.089429l-52.415592-55.410769a14.227089 14.227089 0 0 1-3.743971-10.857515 13.852692 13.852692 0 0 1 5.615956-10.108722l112.319127-86.11133a13.478295 13.478295 0 0 1 12.355104-2.246383 13.103898 13.103898 0 0 1 9.359927 8.236736l32.572547 83.864948a70.012256 70.012256 0 0 1 0 53.538784 70.76105 70.76105 0 0 1-37.439709 37.439709 71.884241 71.884241 0 0 1-29.202973 3.743971z m-29.951767-41.18368a41.558077 41.558077 0 0 0 68.889064-43.430062l-25.833399-66.268285L351.933264 936.542712zM402.476871 297.821278a15.350281 15.350281 0 0 1-7.113545-1.871985L98.092037 128.219397a59.903534 59.903534 0 0 1-31.823752-44.553254A60.652328 60.652328 0 0 1 140.773305 15.525873L527.151101 112.869116a13.852692 13.852692 0 0 1 7.487942 22.089428l-120.93026 157.246778a15.724678 15.724678 0 0 1-11.231912 5.615956zM126.546216 41.733669a31.823753 31.823753 0 0 0-23.212619 9.734324 32.19815 32.19815 0 0 0-9.359928 28.079782 33.321341 33.321341 0 0 0 18.345458 23.961414l287.536964 161.739542 100.712817-131.038981-366.53475-91.727287zM949.471018 957.883346h-9.359927a61.77552 61.77552 0 0 1-44.927651-32.19815l-167.355499-297.271288a14.227089 14.227089 0 0 1 3.743971-17.971061L889.193087 487.266205a12.729501 12.729501 0 0 1 13.103898 0 14.975884 14.975884 0 0 1 9.359927 9.734324l96.594449 386.003399a61.026726 61.026726 0 0 1-16.099075 57.657152 59.529137 59.529137 0 0 1-42.681268 17.222266z m-191.316913-332.839012l161.739543 286.78817a32.946944 32.946944 0 0 0 52.415592 8.611133 31.823753 31.823753 0 0 0 8.611133-31.074958L889.567484 524.705914z" fill="#231815" p-id="8122"></path><path d="M195.060883 842.569043a13.478295 13.478295 0 0 1-10.108721-4.118368 14.601486 14.601486 0 0 1 0-19.843046l112.319127-112.319127a13.852692 13.852692 0 0 1 19.843045 19.843046l-112.319126 112.319127a12.729501 12.729501 0 0 1-9.734325 4.118368z" fill="#231815" p-id="8123"></path></svg>