<?xml version="1.0" standalone="no"?><!DOCTYPE svg PUBLIC "-//W3C//DTD SVG 1.1//EN" "http://www.w3.org/Graphics/SVG/1.1/DTD/svg11.dtd"><svg t="1613234443115" class="icon" viewBox="0 0 1024 1024" version="1.1" xmlns="http://www.w3.org/2000/svg" p-id="10892" width="32" height="32" xmlns:xlink="http://www.w3.org/1999/xlink"><defs><style type="text/css">@font-face { font-family: element-icons; src: url("chrome-extension://moombeodfomdpjnpocobemoiaemednkg/fonts/element-icons.woff") format("woff"), url("chrome-extension://moombeodfomdpjnpocobemoiaemednkg/fonts/element-icons.ttf ") format("truetype"); }
</style></defs><path d="M837.38 423.73c-0.79-16.86-2.66-33.55-5.45-49.6-2.79-16.06-6.5-31.5-10.98-45.86-4.48-14.37-9.73-27.67-15.58-39.45-4.89-9.84-10.22-18.61-15.87-26.06-5.66-7.45-11.66-13.58-17.9-18.12-6.24-4.54-12.74-7.49-19.38-8.58-1.08-0.18-2.17-0.22-3.25-0.3 0.8 0.06 1.61 0.06 2.41 0.17-103.77-14.56-207.52-29.11-311.29-43.67-0.19-0.03-0.39-0.05-0.58-0.08-0.2-0.02-0.39-0.05-0.59-0.07l-0.59-0.06c-0.2-0.02-0.39-0.03-0.58-0.05l-0.96-0.06c-0.32-0.02-0.64-0.03-0.96-0.03-0.18 0-0.37 0-0.55-0.01H434.87c-0.32 0-0.64 0.01-0.97 0.02-0.3 0.01-0.61 0.02-0.91 0.04l-0.91 0.06c-0.3 0.03-0.61 0.05-0.91 0.09-0.28 0.03-0.55 0.06-0.83 0.1h-0.02-0.01c-0.02 0-0.04 0-0.05 0.01-0.29 0.04-0.58 0.08-0.88 0.13-0.29 0.05-0.58 0.1-0.88 0.15s-0.58 0.11-0.88 0.17c-0.29 0.06-0.58 0.12-0.88 0.19-0.28 0.07-0.57 0.13-0.85 0.21-0.16 0.04-0.32 0.09-0.49 0.13-0.01 0-0.02 0-0.04 0.01-0.01 0-0.02 0.01-0.03 0.01-0.1 0.03-0.2 0.05-0.29 0.08-0.28 0.08-0.57 0.16-0.85 0.25s-0.57 0.18-0.85 0.27c-0.24 0.08-0.49 0.16-0.73 0.25s-0.49 0.17-0.73 0.26c-0.25 0.09-0.49 0.18-0.74 0.28-0.24 0.1-0.49 0.2-0.73 0.3-0.04 0.01-0.07 0.03-0.11 0.04-0.03 0.01-0.07 0.03-0.11 0.04-0.04 0.01-0.07 0.03-0.1 0.04-0.04 0.01-0.07 0.03-0.11 0.04-0.29 0.12-0.58 0.25-0.87 0.38-0.29 0.13-0.58 0.26-0.87 0.4l-0.87 0.42c-0.29 0.14-0.58 0.29-0.86 0.44-0.29 0.15-0.58 0.3-0.86 0.46-0.29 0.16-0.57 0.32-0.86 0.48l-0.06 0.03c-0.01 0-0.01 0.01-0.02 0.01-0.26 0.15-0.52 0.3-0.78 0.46-0.29 0.17-0.57 0.34-0.86 0.52-0.3 0.19-0.6 0.38-0.91 0.58-0.3 0.2-0.6 0.39-0.9 0.6-0.3 0.2-0.6 0.41-0.9 0.62-0.3 0.21-0.6 0.42-0.9 0.64-0.1 0.07-0.2 0.15-0.3 0.22-0.02 0.02-0.05 0.03-0.07 0.05-0.2 0.14-0.39 0.29-0.59 0.43-0.31 0.24-0.63 0.48-0.95 0.73-0.31 0.25-0.63 0.5-0.94 0.75-0.31 0.25-0.63 0.51-0.94 0.77-0.33 0.27-0.65 0.55-0.98 0.83-0.33 0.28-0.65 0.57-0.97 0.85-0.02 0.02-0.05 0.04-0.07 0.07l-0.03 0.03c-0.29 0.26-0.58 0.52-0.87 0.79-0.32 0.3-0.65 0.6-0.97 0.91-0.39 0.36-0.77 0.74-1.15 1.11-0.38 0.38-0.77 0.76-1.15 1.15-0.38 0.39-0.76 0.78-1.14 1.18l-0.08 0.08c-0.02 0.02-0.04 0.04-0.05 0.06-0.34 0.36-0.67 0.71-1.01 1.08-0.42 0.45-0.84 0.92-1.26 1.38-0.42 0.47-0.84 0.94-1.25 1.43-0.41 0.48-0.83 0.97-1.24 1.47-0.15 0.18-0.29 0.36-0.44 0.53l-0.16 0.19c-0.21 0.26-0.43 0.52-0.64 0.78-0.51 0.63-1.02 1.26-1.52 1.91a163.226 163.226 0 0 0-2.95 3.91c-0.01 0.01-0.02 0.03-0.03 0.04-0.01 0.02-0.02 0.03-0.04 0.05-0.5 0.68-1 1.38-1.5 2.08a149.874 149.874 0 0 0-3.36 4.94c-0.13 0.19-0.26 0.38-0.38 0.58-0.16 0.25-0.32 0.48-0.48 0.73-0.7 1.08-1.4 2.17-2.09 3.29-0.69 1.11-1.39 2.25-2.08 3.4-0.04 0.07-0.09 0.15-0.13 0.22-0.03 0.05-0.07 0.1-0.1 0.15-0.15 0.25-0.29 0.52-0.44 0.77-0.99 1.67-1.98 3.36-2.96 5.1-0.33 0.58-0.65 1.2-0.98 1.79-0.43 0.78-0.86 1.56-1.28 2.36-0.44 0.81-0.88 1.59-1.32 2.41-0.71 1.35-1.42 2.75-2.12 4.13-0.33 0.65-0.67 1.28-1 1.94-0.13 0.27-0.27 0.52-0.41 0.79-1.17 2.34-2.33 4.72-3.48 7.15-0.1 0.21-0.19 0.43-0.29 0.64-1.36 2.86-2.69 5.81-4.03 8.8-0.3 0.66-0.6 1.29-0.89 1.96-1.63 3.7-3.25 7.49-4.85 11.36-0.04 0.1-0.09 0.2-0.13 0.3-0.39 0.95-0.78 1.96-1.17 2.92-1.15 2.84-2.3 5.68-3.44 8.6-0.59 1.52-1.18 3.09-1.77 4.64-0.97 2.53-1.93 5.06-2.88 7.64-0.17 0.46-0.35 0.91-0.52 1.37-0.17 0.46-0.33 0.97-0.5 1.43-0.91 2.5-1.83 4.99-2.73 7.54-1.22 3.45-2.39 7.1-3.6 10.63-0.84 2.47-1.72 4.82-2.55 7.33-0.38 1.15-0.74 2.36-1.12 3.51-1.81 5.5-3.57 11.12-5.32 16.77-0.84 2.7-1.72 5.29-2.55 8.02-0.32 1.04-0.62 2.11-0.94 3.16-0.49 1.62-0.97 3.26-1.46 4.9-0.88 2.95-1.77 5.88-2.64 8.86-1.2 4.1-2.37 8.24-3.54 12.39l-0.96 3.35c-0.14 0.48-0.28 0.96-0.41 1.45-1.62 5.77-3.21 11.56-4.78 17.38-0.46 1.72-0.92 3.45-1.38 5.18-0.21 0.79-0.44 1.57-0.65 2.36-0.29 1.08-0.56 2.16-0.84 3.23-0.6 2.25-1.2 4.49-1.79 6.74-0.92 3.52-1.81 7.04-2.71 10.57-0.93 3.61-1.86 7.21-2.78 10.82-0.32 1.25-0.65 2.51-0.96 3.76-1.07 4.24-2.09 8.45-3.14 12.67-0.83 3.34-1.67 6.69-2.48 10.02-0.19 0.79-0.4 1.58-0.59 2.37-1.26 5.18-2.48 10.29-3.71 15.42-0.66 2.75-1.34 5.53-1.99 8.27-0.08 0.35-0.17 0.72-0.26 1.07-1.95 8.18-3.86 16.28-5.73 24.25-0.98 3.68-1.92 7.16-2.82 10.51-0.31 1.15-0.6 2.21-0.91 3.31-0.59 2.17-1.18 4.31-1.74 6.31-0.31 1.11-0.61 2.17-0.9 3.24-0.5 1.78-0.98 3.5-1.44 5.13-0.29 1.02-0.58 2.03-0.85 2.99-0.46 1.6-0.89 3.12-1.31 4.54-0.2 0.7-0.41 1.44-0.61 2.1-0.46 1.58-0.87 3-1.26 4.32-0.11 0.38-0.25 0.85-0.36 1.21-0.47 1.59-0.89 2.99-1.23 4.14-0.09 0.3-0.15 0.48-0.23 0.75-0.24 0.8-0.47 1.57-0.63 2.09-0.03 0.1-0.07 0.22-0.1 0.31-0.02 0.07-0.04 0.12-0.06 0.19-0.11 0.35-0.22 0.71-0.25 0.81-0.01 0.02-0.01 0.05-0.02 0.06 3.05 6.85 6.11 13.88 9.2 20.98 3.09 7.1 6.21 14.27 9.39 21.41 3.17 7.14 6.39 14.26 9.68 21.25s6.65 13.85 10.1 20.49c2.28 4.39 4.6 8.68 6.97 12.85s4.77 8.2 7.23 12.09c2.46 3.88 4.96 7.61 7.53 11.15 2.56 3.54 5.18 6.9 7.86 10.04 3.56 5.67 6.83 11.01 9.75 15.84 2.91 4.83 5.47 9.15 7.6 12.79 2.13 3.64 3.82 6.6 5.02 8.71s1.9 3.36 2.02 3.59l310.96 45.87c0.13-0.25 0.85-1.6 2.1-3.87s3.03-5.46 5.28-9.38c2.26-3.92 4.98-8.58 8.13-13.78 3.15-5.2 6.71-10.94 10.63-17.04 13.79-18.5 28.97-38.51 44.09-59.94 15.1-21.4 30.15-44.21 43.73-68.33 13.56-24.1 25.64-49.51 34.83-76.15 9.19-26.63 15.49-54.5 17.49-83.54 1.54-16.81 1.82-33.85 1.03-50.71z" fill="#FFBBA6" p-id="10893"></path><path d="M596.98 844.08c-0.44 0-0.88-0.02-1.33-0.07l-312.4-34.75c-3.71-0.41-7.01-2.53-8.94-5.72-0.18-0.29-0.89-1.48-2.1-3.43-1.25-2.03-3.03-4.89-5.25-8.4-2.58-4.08-5.26-8.24-7.95-12.37-3.21-4.92-6.48-9.82-9.71-14.6-2.73-3.01-5.49-6.31-8.23-9.82-2.76-3.54-5.58-7.4-8.36-11.48-2.62-3.83-5.3-7.97-7.97-12.3-2.5-4.05-5.07-8.42-7.65-12.98-3.54-6.26-7.15-12.97-11.05-20.53-3.22-6.25-6.67-13.16-10.56-21.13-3.4-6.97-6.77-14.03-10.04-20.85l-0.14-0.29c-3.24-6.77-6.59-13.76-9.9-20.55a11.99 11.99 0 0 1 0.97-12.17c2.51-3.58 6.77-5.5 11.12-5.03l313.79 34.3c4.12 0.45 7.72 3 9.51 6.74 3.25 6.78 6.59 13.87 9.81 20.73 3.25 6.92 6.59 14.02 9.98 21.1 3.74 7.82 7.07 14.59 10.17 20.71 3.69 7.29 7.11 13.75 10.45 19.76 2.4 4.31 4.79 8.43 7.09 12.25 2.44 4.02 4.87 7.85 7.24 11.37 2.48 3.68 4.96 7.14 7.38 10.29 2.51 3.27 5.03 6.31 7.5 9.05 0.39 0.43 0.75 0.89 1.07 1.38 3.45 5.16 6.9 10.44 10.28 15.7 2.73 4.25 5.43 8.52 8.03 12.69 2.25 3.62 4.06 6.57 5.33 8.67 1.27 2.09 2.01 3.35 2.17 3.61 2.32 3.91 2.24 8.81-0.23 12.64a12.016 12.016 0 0 1-10.08 5.48z m-305.24-58.03l282.06 31.38a1049.593 1049.593 0 0 0-11.8-18.11c-2.7-3.03-5.43-6.33-8.12-9.84-2.72-3.54-5.5-7.41-8.25-11.5a307.67 307.67 0 0 1-7.86-12.34c-2.46-4.07-5-8.44-7.54-13.01-3.49-6.28-7.05-13.01-10.89-20.58-3.18-6.28-6.58-13.21-10.4-21.19-3.43-7.16-6.78-14.3-10.03-21.2-2.37-5.04-4.64-9.86-6.89-14.6l-285.63-31.22c0.19 0.39 0.38 0.78 0.56 1.17l0.14 0.29c3.25 6.79 6.61 13.81 9.97 20.7 3.81 7.8 7.18 14.56 10.32 20.65 3.75 7.27 7.21 13.72 10.6 19.7 2.43 4.3 4.85 8.41 7.19 12.21 2.47 4.01 4.94 7.82 7.34 11.33 2.51 3.67 5.03 7.12 7.48 10.27 2.55 3.26 5.1 6.3 7.6 9.03 0.39 0.43 0.75 0.89 1.08 1.37a989.82 989.82 0 0 1 10.42 15.66c2.76 4.22 5.5 8.48 8.14 12.66 1.81 2.83 3.32 5.25 4.51 7.17z" fill="#9E1919" p-id="10894"></path><path d="M499.99 675.86c-0.43 0-0.87-0.02-1.31-0.07l-313.79-34.3c-3.45-0.38-6.56-2.22-8.54-5.07s-2.64-6.41-1.8-9.77c0.02-0.1 0.06-0.22 0.09-0.33l1.08-4.07c0.3-1.14 0.66-2.53 1.07-4.12l0.32-1.23c0.33-1.3 0.69-2.72 1.09-4.29l0.53-2.1c0.36-1.43 0.74-2.95 1.13-4.55l0.74-3c0.4-1.63 0.82-3.36 1.25-5.14l0.78-3.24c0.48-2.01 0.99-4.15 1.5-6.33l0.78-3.31c0.77-3.3 1.57-6.74 2.4-10.37 1.58-8 3.18-16.11 4.83-24.31l0.22-1.08c0.33-1.65 0.67-3.32 1.01-4.99l1.33-6.53c0.83-4.13 1.67-8.25 2.53-12.42l0.5-2.4c0.46-2.23 0.93-4.46 1.41-6.71l1.57-7.5c0.61-2.91 1.21-5.82 1.84-8.74l0.45-2.06 0.38-1.75c0.59-2.74 1.19-5.46 1.79-8.19l1.47-6.72c0.49-2.25 0.98-4.5 1.48-6.75 0.31-1.38 0.63-2.77 0.94-4.15l0.61-2.68c0.11-0.49 0.22-0.98 0.33-1.48 0.13-0.6 0.26-1.2 0.4-1.8 0.1-0.45 0.21-0.89 0.31-1.33l0.76-3.3 0.69-3.02c1.41-6.06 2.82-12 4.19-17.65l0.36-1.47c0.16-0.64 0.31-1.28 0.47-1.92l0.52-2.1c0.98-4.01 1.96-8.01 2.97-11.98 0.52-2.07 1.06-4.12 1.6-6.16l1.18-4.55c0.28-1.1 0.57-2.2 0.86-3.29l0.36-1.37c0.16-0.62 0.32-1.23 0.48-1.84 0.43-1.61 0.87-3.18 1.32-4.76 0.32-1.13 0.64-2.27 0.96-3.42 1.59-5.81 3.14-11.49 4.77-17.12l0.42-1.51c0.19-0.7 0.38-1.4 0.58-2.08 0.44-1.5 0.9-2.95 1.35-4.4 0.32-1.03 0.65-2.05 0.96-3.1 0.39-1.31 0.78-2.64 1.17-3.96 0.69-2.33 1.37-4.67 2.08-6.92 0.66-2.08 1.32-4.13 1.99-6.17l0.51-1.57c0.05-0.14 0.09-0.3 0.14-0.45 0.1-0.34 0.21-0.68 0.31-1.01 0.1-0.3 0.2-0.59 0.29-0.88l0.18-0.54c0.87-2.65 1.76-5.26 2.65-7.86l0.53-1.55c0.37-1.08 0.73-2.16 1.1-3.22 1.08-3.09 2.17-6.1 3.19-8.88 0.15-0.41 0.29-0.82 0.44-1.23 0.21-0.6 0.43-1.21 0.65-1.8l0.14-0.37c1.5-4.03 3.03-7.99 4.52-11.73 0.17-0.43 0.35-0.85 0.52-1.26 0.11-0.26 0.22-0.52 0.32-0.78 1.48-3.65 2.69-6.57 3.81-9.18l0.04-0.1c0.08-0.18 0.15-0.37 0.23-0.55 1.12-2.59 2.24-5.11 3.33-7.51l0.39-0.82c0.2-0.45 0.41-0.87 0.61-1.3l0.83-1.76c0.52-1.13 1.05-2.25 1.58-3.35 0.27-0.56 0.54-1.1 0.82-1.64l0.46-0.91c0.41-0.84 0.83-1.67 1.24-2.49l0.35-0.7c0.2-0.41 0.4-0.82 0.61-1.21 0.99-1.92 1.98-3.75 2.9-5.44l0.06-0.12c0.12-0.23 0.24-0.47 0.37-0.69 0.03-0.06 0.08-0.14 0.13-0.23l0.09-0.16c0.69-1.26 1.38-2.47 2.06-3.67 0.69-1.21 1.39-2.39 2.08-3.55l1.13-1.84c0.33-0.54 0.66-1.08 0.99-1.61 0.71-1.13 1.42-2.25 2.14-3.35 0.51-0.77 1.01-1.54 1.52-2.29 0.03-0.05 0.06-0.09 0.1-0.14 0.51-0.75 0.98-1.43 1.44-2.1 0.52-0.74 1.04-1.47 1.56-2.19s1.05-1.43 1.57-2.13l0.76-0.99 0.07-0.09 0.46-0.6c0.44-0.56 0.87-1.11 1.31-1.66 0.44-0.55 0.88-1.09 1.32-1.62 0.45-0.54 0.89-1.07 1.34-1.58 0.36-0.42 0.72-0.83 1.08-1.24 0.01-0.01 0.02-0.03 0.04-0.04 0.02-0.03 0.05-0.06 0.07-0.08 0.45-0.51 0.86-0.97 1.27-1.42 0.42-0.45 0.83-0.9 1.25-1.34 0.4-0.43 0.83-0.87 1.25-1.3 0.36-0.37 0.71-0.72 1.07-1.08 0.31-0.3 0.62-0.61 0.93-0.91l0.06-0.06 0.07-0.07c0.36-0.35 0.72-0.69 1.09-1.02 0.37-0.34 0.73-0.68 1.1-1.01 0.35-0.32 0.71-0.63 1.06-0.94 0.34-0.3 0.7-0.6 1.06-0.9 0.37-0.31 0.73-0.6 1.08-0.89l0.66-0.53a0.55 0.55 0 0 0 0.09-0.07l0.37-0.29c0.31-0.24 0.66-0.51 1.01-0.77l1.05-0.78c0.35-0.25 0.71-0.51 1.07-0.76 0.35-0.24 0.7-0.49 1.06-0.72 0.35-0.24 0.69-0.46 1.02-0.67 0.31-0.2 0.62-0.4 0.92-0.59 0.04-0.02 0.07-0.05 0.1-0.06 0.34-0.21 0.68-0.42 1.03-0.63 0.35-0.21 0.7-0.41 1.04-0.61 0.36-0.2 0.71-0.4 1.06-0.59 0.35-0.19 0.7-0.38 1.05-0.56 0.36-0.19 0.72-0.37 1.08-0.55 0.34-0.17 0.7-0.34 1.05-0.51 0.04-0.02 0.17-0.08 0.2-0.09l0.04-0.02c0.04-0.02 0.1-0.05 0.13-0.06l0.22-0.1c0.27-0.12 0.57-0.26 0.87-0.39 0.32-0.14 0.63-0.27 0.93-0.4 0.3-0.13 0.61-0.25 0.93-0.37 0.33-0.13 0.64-0.25 0.96-0.36 0.37-0.13 0.73-0.26 1.09-0.39 0.36-0.12 0.73-0.24 1.09-0.36l0.22-0.07c0.04-0.01 0.07-0.02 0.11-0.04l0.11-0.03c0.08-0.02 0.15-0.05 0.23-0.07l0.46-0.14c0.33-0.1 0.71-0.2 1.08-0.3 0.38-0.1 0.76-0.2 1.14-0.29 0.37-0.09 0.75-0.18 1.14-0.26 0.4-0.09 0.77-0.16 1.15-0.24 0.41-0.08 0.79-0.15 1.18-0.21h0.02c0.08-0.01 0.16-0.03 0.24-0.04l0.94-0.15c0.39-0.06 0.8-0.11 1.21-0.16 0.39-0.05 0.8-0.09 1.21-0.13 0.39-0.04 0.8-0.07 1.21-0.1 0.42-0.03 0.85-0.05 1.28-0.07l0.21-0.01c0.09 0 0.18-0.01 0.27-0.01h0.28c0.17-0.01 0.34-0.01 0.51-0.01 0.43-0.01 0.86-0.01 1.29 0s0.86 0.02 1.29 0.04c0.23 0.01 0.5 0.02 0.78 0.04 0.23 0.01 0.48 0.03 0.74 0.05l1.56 0.14 312.67 32.55c6.59 0.69 11.38 6.59 10.69 13.18-0.69 6.59-6.6 11.38-13.18 10.69h-0.03c-1.03-0.11-2.08-0.14-3.12-0.11h-0.13c-1 0.03-2.06 0.14-3.11 0.32h-0.01c-1.08 0.19-2.17 0.45-3.24 0.79-1.19 0.38-2.33 0.82-3.45 1.34-1.36 0.63-2.75 1.4-4.13 2.27 0 0-0.01 0.01-0.02 0.01-1.39 0.88-2.81 1.9-4.22 3.04-0.02 0.01-0.04 0.03-0.05 0.04-0.01 0.01-0.03 0.02-0.04 0.03a62.381 62.381 0 0 0-4.32 3.84c-0.03 0.03-0.06 0.06-0.09 0.08a78.906 78.906 0 0 0-4.45 4.73c-0.01 0.02-0.03 0.03-0.04 0.04l-0.01 0.01c-1.46 1.68-2.95 3.52-4.43 5.48l-0.18 0.23c-1.44 1.91-2.93 4.01-4.38 6.17-0.04 0.05-0.07 0.1-0.11 0.16-1.36 2.04-2.74 4.23-4.22 6.69l-0.35 0.57c-1.41 2.36-2.83 4.86-4.22 7.42l-0.45 0.85c-1.14 2.12-2.29 4.34-3.52 6.79-0.38 0.77-0.76 1.54-1.14 2.32-1 2.04-2.02 4.2-3.05 6.41l-0.41 0.88c-0.17 0.36-0.33 0.71-0.5 1.08-1.22 2.68-2.47 5.53-3.71 8.46-1.04 2.45-2.17 5.21-3.56 8.68-0.15 0.37-0.3 0.73-0.45 1.09-0.13 0.31-0.26 0.62-0.39 0.95-1.41 3.58-2.86 7.38-4.3 11.29-0.22 0.61-0.45 1.24-0.67 1.87l-0.53 1.49c-1.01 2.8-2.02 5.6-3.01 8.46-0.34 0.97-0.67 1.96-1 2.96l-0.56 1.67c-0.86 2.54-1.72 5.08-2.56 7.68-0.17 0.51-0.33 1.02-0.49 1.53l-0.4 1.27c-1.89 5.88-3.76 12.16-5.57 18.23l-0.83 2.78c-0.8 2.67-1.6 5.35-2.39 8.08-1.58 5.53-3.16 11.33-4.64 16.81-0.36 1.32-0.72 2.63-1.08 3.94-0.67 2.45-1.34 4.89-1.99 7.39-0.27 1.02-0.53 2.04-0.79 3.06l-0.45 1.75c-1.87 7.25-3.68 14.48-5.38 21.5l-0.4 1.63-0.42 1.71c-1.78 7.37-3.63 15.29-5.66 24.2-0.43 1.87-0.85 3.74-1.27 5.61-1.3 5.79-2.57 11.59-3.84 17.39l-0.71 3.27c-0.57 2.59-1.13 5.18-1.69 7.77-1.18 5.51-2.33 11.01-3.47 16.5l-0.76 3.63c-0.45 2.15-0.9 4.3-1.34 6.44-1.27 6.19-2.51 12.33-3.74 18.45l-0.68 3.37c-0.3 1.48-0.6 2.96-0.89 4.42-1.73 8.66-3.42 17.24-5.07 25.67-0.02 0.11-0.05 0.23-0.07 0.34-0.86 3.8-1.68 7.39-2.48 10.83l-0.99 4.25c-0.29 1.24-0.58 2.49-0.86 3.66l-1.23 5.15c-0.44 1.84-0.87 3.61-1.28 5.3l-2.42 9.81c-0.4 1.61-0.76 3.03-1.1 4.37l-0.35 1.39c-0.4 1.56-0.74 2.88-1.03 4 0 0.01-0.02 0.1-0.03 0.11l-0.79 3.04s-0.03 0.1-0.03 0.11c-0.01 0.03-0.01 0.05-0.02 0.08l-0.29 1.08c-1.35 5.23-6.15 8.83-11.51 8.84z m-298.7-56.73l289.67 31.66c0.3-1.18 0.61-2.43 0.96-3.83l2.37-9.62c0.42-1.71 0.84-3.46 1.27-5.28l1.21-5.06c0.27-1.14 0.56-2.37 0.84-3.59l0.99-4.22c0.78-3.36 1.58-6.84 2.41-10.53 1.65-8.41 3.33-16.96 5.06-25.59 0.3-1.49 0.6-2.99 0.91-4.5l0.67-3.33c1.24-6.16 2.48-12.33 3.76-18.55 0.45-2.17 0.9-4.35 1.36-6.53l0.75-3.61c1.15-5.53 2.31-11.07 3.5-16.62 0.56-2.62 1.13-5.25 1.71-7.87l0.71-3.26c1.28-5.86 2.56-11.71 3.88-17.55 0.42-1.89 0.85-3.78 1.28-5.68 2.05-9.01 3.93-17.01 5.73-24.49 0.15-0.62 0.3-1.24 0.46-1.86l0.37-1.52c1.73-7.13 3.57-14.46 5.46-21.82l0.44-1.71c0.27-1.06 0.54-2.12 0.82-3.17 0.67-2.59 1.37-5.13 2.07-7.67 0.35-1.28 0.7-2.57 1.05-3.86 1.5-5.56 3.11-11.46 4.73-17.15 0.81-2.83 1.64-5.6 2.47-8.37l0.82-2.75c1.85-6.19 3.75-12.59 5.73-18.72l0.37-1.16c0.18-0.57 0.36-1.15 0.55-1.71 0.87-2.67 1.75-5.3 2.64-7.92l0.54-1.61c0.36-1.06 0.71-2.13 1.07-3.17 1.03-2.98 2.07-5.88 3.12-8.78l0.48-1.35c0.25-0.72 0.51-1.44 0.77-2.14 1.51-4.09 3.02-8.06 4.5-11.81 0.18-0.45 0.35-0.88 0.53-1.31 0.11-0.27 0.23-0.55 0.34-0.83 1.45-3.63 2.64-6.54 3.75-9.15 1.33-3.12 2.65-6.14 3.95-9 0.2-0.45 0.41-0.88 0.61-1.32l0.36-0.77c1.1-2.38 2.21-4.71 3.29-6.92 0.41-0.84 0.82-1.68 1.24-2.51 1.33-2.66 2.59-5.09 3.84-7.41l0.15-0.28c0.11-0.22 0.23-0.44 0.34-0.65 1.55-2.86 3.14-5.64 4.72-8.28l0.38-0.63c1.7-2.83 3.3-5.37 4.9-7.75 0.03-0.05 0.07-0.1 0.1-0.15 1.68-2.51 3.42-4.96 5.17-7.27l0.12-0.16c1.84-2.43 3.68-4.7 5.49-6.78 0.01-0.02 0.03-0.03 0.04-0.05l0.02-0.02c1.58-1.81 3.18-3.54 4.79-5.16l-269.37-28.04-1.14-0.07c-0.26-0.01-0.47-0.02-0.68-0.02h-0.63l-0.37 0.01H340.43l-0.62 0.03c-0.2 0.01-0.4 0.03-0.59 0.05l-0.6 0.06c-0.22 0.03-0.41 0.05-0.61 0.08-0.21 0.03-0.41 0.06-0.6 0.09-0.02 0-0.05 0.01-0.08 0.01-0.18 0.03-0.36 0.06-0.55 0.1-0.18 0.04-0.38 0.08-0.58 0.12-0.18 0.04-0.38 0.08-0.58 0.13-0.21 0.05-0.41 0.1-0.61 0.16-0.19 0.05-0.37 0.1-0.56 0.16l-0.3 0.09c-0.05 0.02-0.1 0.03-0.14 0.04l-0.14 0.04c-0.21 0.06-0.4 0.13-0.59 0.2-0.21 0.07-0.41 0.15-0.62 0.22-0.16 0.06-0.33 0.12-0.5 0.19-0.16 0.06-0.33 0.13-0.5 0.2l-1.06 0.46-5.07-10.88 4.96 10.93c-0.06 0.03-0.07 0.03-0.14 0.06-0.24 0.11-0.46 0.22-0.68 0.33-0.22 0.11-0.43 0.22-0.64 0.32-0.21 0.11-0.43 0.23-0.65 0.35-0.21 0.11-0.42 0.23-0.64 0.36-0.21 0.12-0.43 0.25-0.65 0.38a13.418 13.418 0 0 0-0.67 0.41c-0.02 0.02-0.05 0.03-0.07 0.05-0.18 0.12-0.37 0.23-0.55 0.35-0.22 0.14-0.44 0.29-0.67 0.44-0.21 0.15-0.45 0.31-0.69 0.47-0.24 0.17-0.47 0.33-0.7 0.5-0.24 0.18-0.48 0.35-0.72 0.53-0.23 0.18-0.47 0.36-0.7 0.54l-0.25 0.2c-0.01 0.01-0.02 0.02-0.04 0.03l-0.01 0.01-0.46 0.36c-0.28 0.22-0.53 0.43-0.79 0.65-0.25 0.21-0.5 0.42-0.75 0.64-0.27 0.23-0.52 0.46-0.78 0.69-0.27 0.24-0.53 0.48-0.79 0.73-0.27 0.25-0.53 0.5-0.8 0.76h-0.01l-0.09 0.09c-0.24 0.23-0.48 0.46-0.72 0.7-0.27 0.27-0.54 0.54-0.8 0.81-0.32 0.32-0.64 0.65-0.95 0.99-0.34 0.36-0.66 0.7-0.98 1.05-0.32 0.35-0.64 0.7-0.96 1.06-0.04 0.04-0.08 0.09-0.12 0.14-0.29 0.33-0.57 0.65-0.86 0.99-0.36 0.42-0.72 0.85-1.08 1.28l-1.07 1.31c-0.36 0.45-0.72 0.9-1.08 1.37l-1.08 1.41c-0.44 0.58-0.88 1.18-1.33 1.79-0.44 0.61-0.88 1.23-1.32 1.85-0.42 0.6-0.84 1.21-1.26 1.83a0.47 0.47 0 0 0-0.06 0.09l-0.01 0.02c-0.44 0.64-0.87 1.29-1.3 1.95-0.63 0.96-1.25 1.93-1.88 2.93-0.28 0.44-0.55 0.89-0.82 1.34l-1.05 1.71c-0.62 1.04-1.24 2.1-1.86 3.17-0.61 1.06-1.22 2.15-1.83 3.25l-0.15 0.27-0.11 0.19-0.02 0.04c-0.11 0.22-0.22 0.43-0.33 0.64-0.86 1.57-1.77 3.26-2.65 4.97-0.14 0.27-0.28 0.55-0.41 0.83-0.15 0.31-0.31 0.62-0.46 0.93-0.38 0.75-0.76 1.52-1.15 2.3l-0.54 1.08c-0.21 0.42-0.43 0.85-0.64 1.29-0.48 0.98-0.95 1.99-1.42 3.01l-0.9 1.91c-0.16 0.34-0.33 0.69-0.49 1.04l-0.37 0.78c-1.03 2.25-2.08 4.62-3.12 7.04l-0.04 0.09c-0.07 0.18-0.15 0.36-0.22 0.53-1.06 2.45-2.2 5.21-3.61 8.7-0.14 0.36-0.29 0.71-0.44 1.06-0.12 0.29-0.25 0.59-0.37 0.89-1.42 3.56-2.88 7.36-4.34 11.27l-0.13 0.34c-0.18 0.49-0.34 0.95-0.51 1.41-0.17 0.49-0.35 0.98-0.52 1.46-0.99 2.7-2.04 5.6-3.07 8.55-0.34 0.99-0.69 1.99-1.03 3l-0.55 1.61c-0.86 2.52-1.72 5.04-2.57 7.61l-0.46 1.38c-0.05 0.14-0.09 0.3-0.14 0.46-0.1 0.32-0.19 0.64-0.29 0.95l-0.52 1.6c-0.64 1.96-1.28 3.93-1.91 5.93-0.67 2.12-1.31 4.31-1.95 6.5-0.4 1.37-0.81 2.75-1.22 4.11-0.35 1.15-0.7 2.27-1.06 3.4-0.41 1.29-0.82 2.58-1.21 3.92-0.16 0.54-0.31 1.1-0.46 1.66-0.17 0.63-0.34 1.25-0.52 1.86-1.58 5.47-3.11 11.06-4.67 16.77-0.34 1.23-0.68 2.44-1.02 3.65-0.41 1.45-0.82 2.89-1.22 4.38-0.14 0.54-0.29 1.09-0.43 1.64l-0.39 1.52c-0.28 1.06-0.55 2.12-0.83 3.18l-1.2 4.62c-0.52 1.99-1.04 3.97-1.55 5.98-0.99 3.91-1.96 7.85-2.92 11.8l-0.54 2.19c-0.15 0.59-0.3 1.19-0.44 1.78l-0.36 1.45c-1.35 5.58-2.74 11.44-4.14 17.43-0.22 0.96-0.44 1.92-0.66 2.89l-0.53 2.31-0.3 1.27c-0.09 0.37-0.18 0.73-0.26 1.1l-0.36 1.6-0.36 1.64-0.63 2.74c-0.31 1.34-0.62 2.68-0.92 4.02-0.49 2.2-0.97 4.4-1.45 6.6l-1.49 6.79c-0.59 2.7-1.19 5.39-1.77 8.09-0.13 0.62-0.27 1.25-0.41 1.88-0.14 0.64-0.28 1.27-0.42 1.9-0.62 2.88-1.22 5.75-1.81 8.62l-1.59 7.55c-0.47 2.21-0.93 4.42-1.39 6.62l-0.5 2.38c-0.85 4.14-1.68 8.23-2.51 12.33l-1.34 6.58c-0.34 1.64-0.67 3.28-1 4.91l-0.22 1.06c-1.66 8.25-3.27 16.39-4.85 24.41-0.02 0.12-0.05 0.23-0.07 0.35-0.85 3.74-1.67 7.27-2.46 10.67l-0.79 3.36c-0.52 2.2-1.03 4.38-1.52 6.41l-0.79 3.29c-0.44 1.8-0.86 3.56-1.27 5.21l-0.75 3.05c-0.4 1.63-0.79 3.17-1.15 4.62l-0.53 2.14c-0.02 0.23-0.07 0.45-0.13 0.66z m311.47-7.99zM284.09 253.16l-0.04 0.07c0.01-0.03 0.03-0.05 0.04-0.07z m33.28-2.94c-0.02 0.02-0.05 0.05-0.08 0.07 0.03-0.02 0.06-0.04 0.08-0.07z m0.01-0.01l-0.01 0.01c0.01 0 0.01-0.01 0.01-0.01z m13.16-22.25z m9.8-1.65h0.01-0.01z" fill="#9E1919" p-id="10895"></path><path d="M596.99 844.07c-4.22 0-8.15-2.21-10.32-5.85-0.15-0.26-0.86-1.45-2.06-3.43-1.24-2.04-2.99-4.9-5.18-8.42a1021.395 1021.395 0 0 0-17.42-27.04c-2.7-3.03-5.43-6.33-8.12-9.84-2.73-3.55-5.5-7.42-8.25-11.5-2.59-3.84-5.23-7.99-7.86-12.34-2.46-4.06-4.99-8.44-7.54-13.01-3.49-6.28-7.05-13.01-10.89-20.58-3.18-6.28-6.58-13.21-10.4-21.19-3.38-7.05-6.74-14.19-9.98-21.1l-0.05-0.1c-3.19-6.79-6.5-13.82-9.76-20.61a12.017 12.017 0 0 1-0.77-8.3c0.08-0.3 0.45-1.69 1.08-4.08 0.64-2.46 1.54-5.98 2.66-10.46 1.28-5.15 2.62-10.62 3.96-16.25 1.65-6.93 3.31-14.09 4.94-21.28 6.46-33.03 14.25-72 23.03-110.7 9.57-42.19 18.8-77.41 28.22-107.69 11.39-36.62 22.79-65.22 34.84-87.45 14.53-26.79 29.68-43.56 46.33-51.28 8.67-4.02 17.68-5.47 26.78-4.31 8.41 1.07 16.77 4.38 24.86 9.83 7.26 4.89 14.37 11.56 21.12 19.83 6.32 7.74 12.39 16.94 18.04 27.34 6.56 12.09 12.54 25.76 17.76 40.61 2.2 6.25-1.09 13.1-7.34 15.3-6.26 2.2-13.1-1.09-15.3-7.34-4.8-13.66-10.25-26.14-16.21-37.12-4.93-9.09-10.16-17.03-15.53-23.61-5.27-6.45-10.63-11.53-15.95-15.11-4.96-3.34-9.83-5.34-14.49-5.93-4.62-0.59-9.08 0.15-13.64 2.27-11.63 5.39-23.52 19.17-35.33 40.95-11.14 20.55-22.25 48.52-33.02 83.13-9.23 29.68-18.3 64.31-27.73 105.88-8.73 38.46-16.48 77.28-22.92 110.17-0.02 0.11-0.05 0.23-0.07 0.34-1.66 7.34-3.35 14.66-5.04 21.73-1.36 5.72-2.72 11.27-4.02 16.5-1.13 4.54-2.05 8.12-2.7 10.63 2.67 5.6 5.34 11.27 7.93 16.79l0.05 0.1c3.23 6.87 6.57 13.97 9.91 20.95 3.74 7.82 7.07 14.59 10.17 20.71 3.69 7.29 7.11 13.75 10.45 19.76 2.4 4.32 4.79 8.44 7.09 12.25 2.43 4.02 4.87 7.84 7.24 11.36 2.47 3.67 4.96 7.14 7.38 10.3 2.51 3.27 5.03 6.31 7.5 9.04 0.39 0.43 0.75 0.89 1.07 1.38a969.27 969.27 0 0 1 10.28 15.7c1.45 2.25 2.89 4.51 4.3 6.76a755.454 755.454 0 0 1 15.15-26.75c0.14-0.24 0.29-0.47 0.45-0.7 2.41-3.48 4.86-7.01 7.34-10.59 11.2-16.14 22.78-32.83 34.41-50.62 16.4-25.09 29.69-47.59 40.65-68.79 13.6-26.34 23.83-50.98 31.28-75.34 8.41-27.52 13.11-54.78 13.98-81 0-0.08 0.01-0.17 0.01-0.25 0.86-15.88 0.6-32.38-0.78-49.05-0.55-6.6 4.36-12.4 10.97-12.95 6.63-0.55 12.4 4.36 12.95 10.97 1.47 17.71 1.75 35.28 0.84 52.21-0.95 28.29-6 57.6-15.01 87.09-7.87 25.76-18.63 51.71-32.91 79.35-11.33 21.94-25.03 45.13-41.88 70.91-11.81 18.07-23.49 34.9-34.78 51.17-2.4 3.45-4.76 6.86-7.08 10.21-3.26 5.49-6.5 11.13-9.64 16.77a715.91 715.91 0 0 0-7.51 13.82 496.017 496.017 0 0 0-6.71 13.13c-1.93 3.96-5.9 6.56-10.3 6.74-0.2-0.03-0.37-0.02-0.53-0.02z" fill="#9E1919" p-id="10896"></path><path d="M417.18 749.92c-0.38 1.61-0.69 3.49-1.06 5.35-0.75 3.74-1.75 7.47-4.14 9.12-1.19 0.83-2.72 1.12-4.7 0.59-3.32-2.9-5.87-5.91-7.78-9.02-2.43-0.85-3.12-6.46-3.87-9.55 0.03-6.42-1.26-4.93-0.62-9.86 0.06-0.62 0.12-1.21 0.19-1.78s0.15-1.12 0.2-1.62c1.08-2.56 1.75-4.16 2.35-5.84 0.2-0.56 0.39-1.12 0.58-1.74 2.69-10.94 2.69-10.94 9.01-22.45 0.42-0.83 0.9-1.72 1.41-2.66 0.25-0.48 0.47-0.81 0.74-1.31s0.59-1.17 1.03-2.33c0.19 0.29 0.51 0.08 1.19-1.61 0.2-0.55 0.4-1.26 0.62-2.17 5.83 0.95 8.57-10.74 8.22-13.54 0.48-0.72 0.98-1.68 1.48-2.68 1.31-3.33 1.94-3.76 2.42-3.56 2.17-3.58 2.11 1.63 2.25 5.41 0.35 0.69 0.6 1.73 0.88 2.68 4.38 3.22 2.83 12.57 1.41 17.14-0.2 0.65-0.4 1.21-0.57 1.61-1.05 6.64-1.26 7.97-3.02 15.46-0.22 0.94-0.46 1.97-0.74 3.12-3.03 13.08-3.03 13.08-5.86 23.46-0.21 0.78-0.42 1.57-0.63 2.36a36.55 36.55 0 0 1-0.99 5.42z" fill="#C72B2B" p-id="10897"></path><path d="M380.547 761.7l59.718 5.796-1.16 11.944-59.717-5.796z" fill="#C72B2B" p-id="10898"></path></svg>